<svg xmlns="http://www.w3.org/2000/svg" xmlns:xlink="http://www.w3.org/1999/xlink" version="1.1" width="1000" height="1000" viewBox="0 0 1000 1000" xml:space="preserve">
<desc>Created with Fabric.js 3.5.0</desc>
<defs>
</defs>
<rect x="0" y="0" width="100%" height="100%" fill="#ffffff"/>
<g transform="matrix(0.9259 0 0 0.9259 499.986 499.986)" id="c1c657d9-4a89-4286-8a0a-aa2348fd0f79">
<rect style="stroke: none; stroke-width: 1; stroke-dasharray: none; stroke-linecap: butt; stroke-dashoffset: 0; stroke-linejoin: miter; stroke-miterlimit: 4; is-custom-font: none; font-file-url: none; fill: rgb(255,255,255); fill-rule: nonzero; opacity: 1; visibility: hidden;" vector-effect="non-scaling-stroke" x="-540" y="-540" rx="0" ry="0" width="1080" height="1080"/>
</g>
<g transform="matrix(2.1016 0 0 2.1016 487.3008 320.4877)" id="31868">
<path style="stroke: none; stroke-width: 1; stroke-dasharray: none; stroke-linecap: butt; stroke-dashoffset: 0; stroke-linejoin: miter; stroke-miterlimit: 4; is-custom-font: none; font-file-url: none; fill: rgb(0,0,0); fill-rule: evenodd; opacity: 1;" vector-effect="non-scaling-stroke" transform=" translate(-343.9759, -183.3445)" d="M 262.28 158.14 C 260.72529999999995 163.29229999999998 259.17449999999997 169.105 257.7292 175.47199999999998 C 255.0495 187.265 253.0378 199.593 251.9675 212.15999999999997 C 251.63938 216.01159999999996 254.4948 219.40219999999997 258.3464 219.73029999999997 C 262.19800000000004 220.05842999999996 265.58860000000004 217.20299999999997 265.9167 213.35139999999998 C 266.9284 201.46439999999998 268.8386 189.7694 271.3815 178.57039999999998 C 272.75260000000003 172.53519999999997 274.2174 167.03539999999998 275.6823 162.18739999999997 C 276.54949 159.30849999999998 277.2135 157.31239999999997 277.5768 156.31239999999997 C 278.8893 152.67569999999998 277.00649 148.66399999999996 273.3698 147.35149999999996 C 269.7331 146.03899999999996 265.7214 147.92180999999997 264.4089 151.55849999999995 C 263.96359 152.78509999999994 263.2214 155.01939999999996 262.28000000000003 158.14049999999995 z M 421.15999999999997 150.5658 C 417.8162 152.7142 414.10139999999996 155.2377 410.109 158.1244 C 398.714 166.3666 387.32399999999996 175.90540000000001 376.671 186.6474 C 373.9483 189.39350000000002 373.9679 193.8271 376.710062 196.5497 C 379.456162 199.2685 383.889762 199.2528 386.612362 196.506731 C 396.68636200000003 186.346731 407.50336200000004 177.287731 418.31136200000003 169.46773100000001 C 422.08866200000006 166.737231 425.58866200000006 164.35833100000002 428.72136200000006 162.346631 C 430.5729620000001 161.159131 431.8736620000001 160.366131 432.5260620000001 159.987231 C 435.86986200000007 158.04583100000002 437.0026620000001 153.76063100000002 435.06126200000006 150.416931 C 433.119862 147.073231 428.83466200000004 145.94033100000001 425.49486200000007 147.881731 C 424.6667320000001 148.362201 423.19016200000004 149.260631 421.1589620000001 150.56533100000001 z" stroke-linecap="round"/>
</g>
<g transform="matrix(2.1016 0 0 2.1016 512.6578 320.1668)" id="566987">
<path style="stroke: none; stroke-width: 1; stroke-dasharray: none; stroke-linecap: butt; stroke-dashoffset: 0; stroke-linejoin: miter; stroke-miterlimit: 4; is-custom-font: none; font-file-url: none; fill: rgb(0,0,0); fill-rule: evenodd; opacity: 1;" vector-effect="non-scaling-stroke" transform=" translate(-356.0113, -183.1922)" d="M 289.89 158.12 C 285.89779999999996 155.2333 282.183 152.7098 278.839 150.5614 C 276.8078 149.2567 275.3312 148.35829999999999 274.5031 147.87779999999998 C 271.1633 145.9364 266.8781 147.06920999999997 264.93670000000003 150.41299999999998 C 262.99530000000004 153.75679 264.12811000000005 158.04189999999997 267.4719 159.98329999999999 C 268.12424 160.36220999999998 269.425 161.15519999999998 271.27660000000003 162.34269999999998 C 274.4094 164.35439999999997 277.9094 166.73329999999999 281.68660000000006 169.4638 C 292.4956000000001 177.2841 303.31160000000006 186.34279999999998 313.38560000000007 196.50279999999998 C 316.10830000000004 199.2489 320.5418000000001 199.26449999999997 323.2879000000001 196.54576899999998 C 326.0301000000001 193.82306899999998 326.0496000000001 189.38956899999997 323.3269620000001 186.64346899999998 C 312.6749620000001 175.901469 301.2839620000001 166.36246899999998 289.8889620000001 158.12046899999999 z M 442.27 175.46800000000002 C 440.8247 169.10080000000002 439.27389999999997 163.288 437.7192 158.13600000000002 C 436.77779 155.0149 436.0356 152.78050000000002 435.5903 151.55400000000003 C 434.2778 147.91730000000004 430.2661 146.03450000000004 426.62940000000003 147.34700000000004 C 422.9927 148.65950000000004 421.10990000000004 152.67120000000003 422.42240000000004 156.30790000000005 C 422.78568 157.30790000000005 423.44970000000006 159.30400000000006 424.31690000000003 162.18290000000005 C 425.78170000000006 167.03060000000005 427.24660000000006 172.53090000000006 428.6177 178.56590000000006 C 431.1411 189.67090000000005 433.0396 201.26890000000006 434.0591 213.05790000000005 C 434.39113 216.90950000000004 437.7857 219.76100000000005 441.6372 219.42900000000006 C 445.4888 219.09306000000007 448.3403 215.70240000000007 448.0083 211.85090000000005 C 446.9263 199.38590000000005 444.9263 187.16290000000006 442.27000000000004 175.46790000000004 z" stroke-linecap="round"/>
</g>
<g transform="matrix(2.1016 0 0 2.1016 854.4994 450.0052)" id="913143">
<path style="stroke: none; stroke-width: 1; stroke-dasharray: none; stroke-linecap: butt; stroke-dashoffset: 0; stroke-linejoin: miter; stroke-miterlimit: 4; is-custom-font: none; font-file-url: none; fill: rgb(0,0,0); fill-rule: evenodd; opacity: 1;" vector-effect="non-scaling-stroke" transform=" translate(-518.2548, -244.8209)" d="M 537.96 237.66 C 524.4680000000001 236.74984 508.761 236.83187999999998 492.038 238.58969 C 488.1942 238.99594 485.40520000000004 242.44128999999998 485.8114 246.28499 C 486.21374 250.12878999999998 489.65909999999997 252.91779 493.5028 252.51549 C 509.35479999999995 250.84749 524.2758 250.76549 537.0187999999999 251.62877 C 539.8898999999999 251.82408 541.8937999999999 252.01158 542.9015999999999 252.13268 C 546.7413999999999 252.59362 550.2257999999999 249.85927999999998 550.6868 246.01937999999998 C 551.14774 242.17958 548.4095 238.69518 544.5695999999999 238.23417999999998 C 543.3273999999999 238.08574 541.0851999999999 237.87089999999998 537.9601999999999 237.65995999999998 z" stroke-linecap="round"/>
</g>
<g transform="matrix(2.1016 0 0 2.1016 884.3723 502.4065)" id="686393">
<path style="stroke: none; stroke-width: 1; stroke-dasharray: none; stroke-linecap: butt; stroke-dashoffset: 0; stroke-linejoin: miter; stroke-miterlimit: 4; is-custom-font: none; font-file-url: none; fill: rgb(0,0,0); fill-rule: evenodd; opacity: 1;" vector-effect="non-scaling-stroke" transform=" translate(-532.4411, -269.6926)" d="M 544.74 262.54 C 546.408 258.5009 547.822 254.7939 548.99 251.50100000000003 C 549.7009400000001 249.49710000000005 550.1775 248.05570000000003 550.4236 247.25490000000002 C 551.5641999999999 243.55960000000002 549.4939099999999 239.6416 545.7986 238.50100000000003 C 542.10329 237.36040000000006 538.1853 239.43069000000003 537.0446999999999 243.12600000000003 C 536.8532899999999 243.74709000000004 536.43923 245.00880000000004 535.7946999999999 246.82520000000002 C 534.7049 249.90330000000003 533.3727999999999 253.38770000000002 531.7986 257.2002 C 527.2908 268.1302 521.7436 279.4732 515.1265999999999 290.6262 C 513.1538999999999 293.9504 514.2476899999999 298.2434 517.5758 300.216 C 520.9 302.1887 525.193 301.09491 527.1655999999999 297.77070000000003 C 534.15 286.00070000000005 539.9895999999999 274.05570000000006 544.7395999999999 262.5407 z" stroke-linecap="round"/>
</g>
<g transform="matrix(2.1016 0 0 2.1016 145.8581 450.0329)" id="269252">
<path style="stroke: none; stroke-width: 1; stroke-dasharray: none; stroke-linecap: butt; stroke-dashoffset: 0; stroke-linejoin: miter; stroke-miterlimit: 4; is-custom-font: none; font-file-url: none; fill: rgb(0,0,0); fill-rule: evenodd; opacity: 1;" vector-effect="non-scaling-stroke" transform=" translate(-181.9117, -244.8391)" d="M 162.04 237.66 C 158.915 237.87094 156.6728 238.08578 155.4306 238.23422 C 151.5908 238.69516 148.8525 242.17952 149.3134 246.01942 C 149.77434 249.85922 153.2587 252.59362 157.0986 252.13272 C 158.1064 252.01163 160.1103 251.82413 162.9814 251.62881000000002 C 175.8214 250.76162000000002 190.8564 250.84756000000002 206.81740000000002 252.55069 C 210.6612 252.95694 214.11040000000003 250.17179000000002 214.52050000000003 246.32799 C 214.93066000000002 242.48419 212.14550000000003 239.03499 208.30170000000004 238.62879 C 191.46170000000004 236.83579 175.63370000000003 236.74209000000002 162.03970000000004 237.66004 z" stroke-linecap="round"/>
</g>
<g transform="matrix(2.1016 0 0 2.1016 116.3103 503.5423)" id="996430">
<path style="stroke: none; stroke-width: 1; stroke-dasharray: none; stroke-linecap: butt; stroke-dashoffset: 0; stroke-linejoin: miter; stroke-miterlimit: 4; is-custom-font: none; font-file-url: none; fill: rgb(0,0,0); fill-rule: evenodd; opacity: 1;" vector-effect="non-scaling-stroke" transform=" translate(-167.8822, -270.2317)" d="M 151.05 251.61 C 152.2492 254.9889 153.7023 258.7858 155.4172 262.922 C 160.3039 274.711 166.3082 286.906 173.4952 298.879 C 175.4874 302.1954 179.78820000000002 303.26570000000004 183.10070000000002 301.2774 C 186.4171 299.2852 187.49130000000002 294.9883 185.49910000000003 291.6719 C 178.69050000000001 280.3319 172.98710000000003 268.74989999999997 168.35110000000003 257.5629 C 166.73390000000003 253.6567 165.36280000000002 250.0824 164.24170000000004 246.9259 C 163.58154000000005 245.05870000000002 163.15190000000004 243.7657 162.95650000000003 243.1251 C 161.81590000000003 239.4298 157.89790000000002 237.3595 154.20260000000005 238.5001 C 150.50730000000007 239.6407 148.43700000000004 243.55870000000002 149.57760000000005 247.254 C 149.83151000000004 248.07822 150.31979000000004 249.5548 151.05030000000005 251.6095 z" stroke-linecap="round"/>
</g>
<g transform="matrix(2.1016 0 0 2.1016 132.5363 568.4532)" id="113605">
<path style="stroke: none; stroke-width: 1; stroke-dasharray: none; stroke-linecap: butt; stroke-dashoffset: 0; stroke-linejoin: miter; stroke-miterlimit: 4; is-custom-font: none; font-file-url: none; fill: rgb(0,0,0); fill-rule: evenodd; opacity: 1;" vector-effect="non-scaling-stroke" transform=" translate(-175.5911, -301.0409)" d="M 152.96 294.33 C 145.2842 296.6112 138.233 299.0605 131.952 301.5136 C 129.745 302.37298 127.78399999999999 303.1777 126.0926 303.9042 C 125.0574 304.34561 124.3309 304.67373 123.9285 304.85732 C 120.4207 306.48232 118.8933 310.64252 120.5183 314.15422 C 122.1433 317.66202 126.3035 319.18542 129.8113 317.56442 C 131.0574 316.98629999999997 133.5222 315.92771999999997 137.04569999999998 314.55271999999997 C 142.97539999999998 312.23632 149.66269999999997 309.91601999999995 156.9517 307.74801999999994 C 179.27169999999998 301.1113199999999 202.17469999999997 297.3500199999999 224.1317 297.9238199999999 C 227.995 298.0253799999999 231.2098 294.9746199999999 231.3114 291.1113199999999 C 231.41299999999998 287.24801999999994 228.3622 284.0332199999999 224.4989 283.9316199999999 C 200.8939 283.3144299999999 176.5889 287.3066199999999 152.9599 294.3296199999999 z" stroke-linecap="round"/>
</g>
<g transform="matrix(2.1016 0 0 2.1016 264.9413 680.1604)" id="721911">
<path style="stroke: none; stroke-width: 1; stroke-dasharray: none; stroke-linecap: butt; stroke-dashoffset: 0; stroke-linejoin: miter; stroke-miterlimit: 4; is-custom-font: none; font-file-url: none; fill: rgb(0,0,0); fill-rule: evenodd; opacity: 1;" vector-effect="non-scaling-stroke" transform=" translate(-238.4331, -354.0663)" d="M 123.98 319.05 C 126.23780000000001 321.97970000000004 128.8784 325.2375 131.8784 328.7375 C 140.4409 338.718 150.2224 348.6945 161.0814 358.0185 C 182.8744 376.72950000000003 206.2104 390.4485 230.6984 397.01050000000004 C 289.6824 412.81550000000004 349.4284 400.15500000000003 356.7584 372.8115 C 357.7584 369.07710000000003 355.54359999999997 365.2373 351.8092 364.2373 C 348.0748 363.2373 344.23499999999996 365.45210000000003 343.23499999999996 369.1865 C 338.5748 386.5815 286.80899999999997 397.5495 234.32499999999996 383.4875 C 212.10599999999997 377.5344 190.52799999999996 364.8465 170.20399999999995 347.39750000000004 C 159.91899999999995 338.56940000000003 150.62999999999994 329.09250000000003 142.50899999999996 319.6245 C 139.66919999999996 316.3159 137.18479999999997 313.2495 135.07539999999995 310.5073 C 133.82539999999995 308.8862 132.99339999999995 307.7495 132.59099999999995 307.18309999999997 C 130.36439999999996 304.0229 125.99719999999995 303.2612 122.83709999999995 305.4878 C 119.67689999999995 307.7144 118.91909999999994 312.0816 121.14569999999995 315.2417 C 121.65741999999995 315.97217 122.61049999999994 317.26509999999996 123.98159999999994 319.0503 z" stroke-linecap="round"/>
</g>
<g transform="matrix(2.1016 0 0 2.1016 867.4634 568.4577)" id="540155">
<path style="stroke: none; stroke-width: 1; stroke-dasharray: none; stroke-linecap: butt; stroke-dashoffset: 0; stroke-linejoin: miter; stroke-miterlimit: 4; is-custom-font: none; font-file-url: none; fill: rgb(0,0,0); fill-rule: evenodd; opacity: 1;" vector-effect="non-scaling-stroke" transform=" translate(-524.4105, -301.043)" d="M 543.05 307.75 C 550.3390999999999 309.918 557.0269999999999 312.2383 562.9559999999999 314.5547 C 566.4793999999999 315.9297 568.9442999999999 316.98830000000004 570.1904 317.56640000000004 C 573.6981999999999 319.18750000000006 577.8584 317.664056 579.4834 314.15620000000007 C 581.1084 310.64450000000005 579.581056 306.4843000000001 576.0731999999999 304.8593000000001 C 575.67086 304.6757100000001 574.9442999999999 304.34758000000005 573.9091 303.90618000000006 C 572.2176999999999 303.17962000000006 570.2568 302.37498000000005 568.0496999999999 301.51558000000006 C 561.7684999999999 299.06248000000005 554.7176999999999 296.61328000000003 547.0416999999999 294.33198000000004 C 523.4126999999999 287.30858000000006 499.1076999999999 283.31598 475.5026999999999 283.93398 C 471.6393999999999 284.03554 468.5885999999999 287.25038 468.6901999999999 291.11368000000004 C 468.7917999999999 294.9769800000001 472.0065999999999 298.02778000000006 475.8698999999999 297.92618000000004 C 497.8268999999999 297.35196 520.7289 301.11368000000004 543.0499 307.75038000000006 z" stroke-linecap="round"/>
</g>
<g transform="matrix(2.1016 0 0 2.1016 735.0519 680.1659)" id="496906">
<path style="stroke: none; stroke-width: 1; stroke-dasharray: none; stroke-linecap: butt; stroke-dashoffset: 0; stroke-linejoin: miter; stroke-miterlimit: 4; is-custom-font: none; font-file-url: none; fill: rgb(0,0,0); fill-rule: evenodd; opacity: 1;" vector-effect="non-scaling-stroke" transform=" translate(-461.5631, -354.0689)" d="M 564.92 310.51 C 562.8105999999999 313.2522 560.3262 316.3186 557.4864 319.6272 C 549.3653 329.096 540.0764 338.5722 529.7914 347.40020000000004 C 509.46739999999994 364.84920000000005 487.88939999999997 377.53720000000004 465.6704 383.4902000000001 C 413.1864 397.5522000000001 361.4204 386.58400000000006 356.7604 369.1892000000001 C 355.7604 365.4548000000001 351.9206 363.24000000000007 348.1862 364.24000000000007 C 344.4518 365.24000000000007 342.23699999999997 369.0798000000001 343.23699999999997 372.8142000000001 C 350.5651 400.1582000000001 410.311 412.8182000000001 469.29699999999997 397.0132000000001 C 493.78499999999997 390.4507000000001 517.121 376.7322000000001 538.914 358.0212000000001 C 549.773 348.69700000000006 559.555 338.7202000000001 568.117 328.7402000000001 C 571.117 325.2402000000001 573.7575999999999 321.9824000000001 576.0154 319.0527000000001 C 577.3865 317.2675000000001 578.3396 315.97460000000007 578.8513 315.24410000000006 C 581.0779 312.0839000000001 580.3201 307.71680000000003 577.1599 305.4902000000001 C 573.9997 303.26360000000005 569.6326 304.02540000000005 567.406 307.18550000000005 C 567.00366 307.75191000000007 566.1715999999999 308.88860000000005 564.9215999999999 310.50970000000007 z" stroke-linecap="round"/>
</g>
<g transform="matrix(2.1016 0 0 2.1016 499.4731 533.6388)" id="167835">
<path style="stroke: none; stroke-width: 0; stroke-dasharray: none; stroke-linecap: butt; stroke-dashoffset: 0; stroke-linejoin: miter; stroke-miterlimit: 4; is-custom-font: none; font-file-url: none; fill: rgb(0,0,0); fill-rule: evenodd; opacity: 1;" vector-effect="non-scaling-stroke" transform=" translate(-349.9957, -284.7565)" d="M 491.22 200.73 C 490.89969 206.20659999999998 490.32938 212.32399999999998 489.44660000000005 218.91799999999998 C 486.9349 237.74599999999998 482.45050000000003 256.55899999999997 475.54060000000004 274.039 C 469.3765 289.625 461.55260000000004 303.39799999999997 451.91560000000004 314.883 C 416.98560000000003 356.50399999999996 368.29060000000004 377.215 354.49760000000003 365.637 C 351.53670000000005 363.1526 347.11870000000005 363.5393 344.63430000000005 366.50028 C 342.14990000000006 369.4612599999999 342.5366000000001 373.87917999999996 345.49758 376.36357999999996 C 367.18558 394.55857999999995 423.38858000000005 370.66047999999995 462.63758 323.87958 C 473.30958000000004 311.16058 481.87158 296.09457999999995 488.55958000000004 279.18458 C 495.93068000000005 260.54357999999996 500.66858 240.65357999999998 503.32558000000006 220.77458 C 504.25136000000003 213.82147999999998 504.8567800000001 207.36058 505.1966800000001 201.55158 C 505.31777000000005 199.50468 505.3959000000001 197.68048 505.44277000000005 196.10238 C 505.4701140000001 195.12972000000002 505.48183300000005 194.44618 505.48183300000005 194.06328000000002 C 505.4935520000001 190.19608000000002 502.364633 187.05548000000002 498.50133300000005 187.04378000000003 C 494.634133 187.03596700000003 491.49353300000007 190.16098000000002 491.48183300000005 194.02428000000003 C 491.4779270000001 195.18838000000002 491.41152000000005 197.47738000000004 491.220113 200.73128000000003 z M 206.03000000000003 202.1636 C 210.74090000000004 203.2652 216.00660000000002 204.6675 221.68200000000002 206.398 C 237.89700000000002 211.3511 254.108 217.941 269.18600000000004 226.355 C 279.87000000000006 232.3198 289.59200000000004 239 298.139 246.42499999999998 C 301.057 248.96409999999997 305.47880000000004 248.65159999999997 308.014 245.73359 C 310.5492 242.81559 310.24060000000003 238.39379 307.32259 235.85859 C 298.01009 227.76479 287.49859 220.54259 276.00659 214.13159 C 259.98659000000004 205.19019 242.87359 198.23359 225.76859000000002 193.01058999999998 C 219.78419000000002 191.18248999999997 214.21759000000003 189.69808999999998 209.20959000000002 188.53008999999997 C 206.17049000000003 187.82305999999997 203.97129 187.36988999999997 202.74479000000002 187.15118999999999 C 198.94009000000003 186.4715 195.30339000000004 189.00278999999998 194.61979000000002 192.80739 C 193.94010000000003 196.61599 196.47139 200.25269 200.27599000000004 200.93239 C 201.27208000000005 201.11208 203.23689000000005 201.51051 206.02989000000002 202.16289 z" stroke-linecap="round"/>
</g>
<g transform="matrix(2.1016 0 0 2.1016 499.9983 534.1481)" id="760565">
<path style="stroke: none; stroke-width: 1; stroke-dasharray: none; stroke-linecap: butt; stroke-dashoffset: 0; stroke-linejoin: miter; stroke-miterlimit: 4; is-custom-font: none; font-file-url: none; fill: rgb(0,0,0); fill-rule: evenodd; opacity: 1;" vector-effect="non-scaling-stroke" transform=" translate(-350.0001, -284.7609)" d="M 430.81 226.36 C 445.888 217.94590000000002 462.099 211.35600000000002 478.314 206.40300000000002 C 483.9898 204.6725 489.255 203.27020000000002 493.966 202.16860000000003 C 496.759 201.51626000000002 498.7238 201.11780000000002 499.7199 200.93810000000002 C 503.5246 200.25841000000003 506.0558 196.62170000000003 505.3761 192.81310000000002 C 504.69251 189.00840000000002 501.05580000000003 186.4772 497.2511 187.1569 C 496.0245 187.37565 493.8253 187.82878 490.7863 188.5358 C 485.7785 189.7038 480.21229999999997 191.1881 474.22729999999996 193.0163 C 457.12229999999994 198.239 440.00829999999996 205.1963 423.98929999999996 214.1373 C 412.49729999999994 220.5475 401.98529999999994 227.77030000000002 392.6733 235.86430000000001 C 389.7553 238.39950000000002 389.44669999999996 242.8213 391.98188999999996 245.73930000000001 C 394.51708999999994 248.65730000000002 398.93888999999996 248.96980000000002 401.85688999999996 246.43071 C 410.40378999999996 239.00491 420.12688999999995 232.32571000000002 430.80988999999994 226.36071 z M 248.08 314.887 C 238.44330000000002 303.403 230.61900000000003 289.629 224.455 274.043 C 217.5448 256.563 213.06 237.75 210.549 218.922 C 209.66619 212.3282 209.0959 206.21099999999998 208.7756 200.734 C 208.58419 197.48010000000002 208.51779 195.191 208.51388 194.02700000000002 C 208.502161 190.1637 205.36158 187.0387 201.49438 187.0465 C 197.63108 187.058219 194.50218 190.1988 194.51388 194.066 C 194.51388 194.44881 194.525599 195.1324 194.552943 196.1051 C 194.599817 197.6832 194.677943 199.5074 194.799033 201.55429999999998 C 195.13887300000002 207.3629 195.74434300000001 213.8243 196.67013300000002 220.77729999999997 C 199.32633300000003 240.65629999999996 204.06463300000001 260.54729999999995 211.436133 279.18729999999994 C 218.123633 296.09729999999996 226.686133 311.1642999999999 237.358133 323.88229999999993 C 276.608133 370.66329999999994 332.81113300000004 394.56229999999994 354.498133 376.3662999999999 C 357.459033 373.8818999999999 357.84583299999997 369.4639999999999 355.36141299999997 366.50299999999993 C 352.87699299999997 363.542 348.45911299999995 363.15529999999995 345.498113 365.63971999999995 C 331.705113 377.21771999999993 283.010113 356.50692 248.08011299999998 314.88571999999994 z" stroke-linecap="round"/>
</g>
<g transform="matrix(2.1016 0 0 2.1016 551.621 472.5043)" id="372227">
<path style="stroke: none; stroke-width: 1; stroke-dasharray: none; stroke-linecap: butt; stroke-dashoffset: 0; stroke-linejoin: miter; stroke-miterlimit: 4; is-custom-font: none; font-file-url: none; fill: rgb(0,0,0); fill-rule: evenodd; opacity: 1;" vector-effect="non-scaling-stroke" transform=" translate(-374.4996, -255.4999)" d="M 406 262.5 C 406 233.258 396.4766 203.25 380.656 174 C 375.156 163.828 369.269 154.473 363.371 146.129 C 361.3046 143.1993 359.37489999999997 140.6017 357.6405 138.3595 C 356.58189999999996 136.9962 355.8085 136.0392 355.37489999999997 135.5157 C 352.89829999999995 132.54690000000002 348.48429999999996 132.1485 345.5155 134.62508 C 342.5467 137.10165999999998 342.14829999999995 141.51568 344.62487999999996 144.48448 C 344.95690999999994 144.87901 345.62096999999994 145.70327999999998 346.57017999999994 146.93367999999998 C 348.1834799999999 149.01567999999997 349.98817999999994 151.45317999999997 351.94127999999995 154.21097999999998 C 357.52717999999993 162.11718 363.12528 171.00797999999998 368.34327999999994 180.65998 C 383.14827999999994 208.03897999999998 391.99927999999994 235.92597999999998 391.99927999999994 262.49998 C 391.99927999999994 316.83598 368.0072799999999 363.99998 349.99927999999994 363.99998 C 346.1320799999999 363.99998 342.99927999999994 367.13277999999997 342.99927999999994 370.99998 C 342.99927999999994 374.86718 346.1320799999999 377.99998 349.99927999999994 377.99998 C 378.30827999999997 377.99998 405.99927999999994 323.56597999999997 405.99927999999994 262.49998 z" stroke-linecap="round"/>
</g>
<g transform="matrix(2.1016 0 0 2.1016 448.3757 472.5053)" id="115065">
<path style="stroke: none; stroke-width: 1; stroke-dasharray: none; stroke-linecap: butt; stroke-dashoffset: 0; stroke-linejoin: miter; stroke-miterlimit: 4; is-custom-font: none; font-file-url: none; fill: rgb(0,0,0); fill-rule: evenodd; opacity: 1;" vector-effect="non-scaling-stroke" transform=" translate(-325.5005, -255.5004)" d="M 342.36 138.36 C 340.6256 140.6022 338.6959 143.1998 336.6295 146.1295 C 330.7311 154.4733 324.8445 163.82850000000002 319.3445 174.00050000000002 C 303.5245 203.25050000000002 294.0005 233.25850000000003 294.0005 262.5005 C 294.0005 323.5665 321.69149999999996 378.0005 350.0005 378.0005 C 353.8677 378.0005 357.0005 374.8677 357.0005 371.0005 C 357.0005 367.13329999999996 353.8677 364.0005 350.0005 364.0005 C 331.9925 364.0005 308.0005 316.8365 308.0005 262.5005 C 308.0005 235.92649999999998 316.8521 208.03949999999998 331.6565 180.66049999999998 C 336.8753 171.0082 342.47249999999997 162.11749999999998 348.0585 154.21149999999997 C 350.0116 151.45369999999997 351.81629999999996 149.01619999999997 353.4296 146.93419999999998 C 354.37882 145.70369999999997 355.0429 144.87949999999998 355.37489999999997 144.48499999999999 C 357.8515 141.5162 357.453 137.10219999999998 354.48427999999996 134.6256 C 351.51555999999994 132.149 347.10148 132.54749999999999 344.62487999999996 135.51622 C 344.19129 136.03966 343.41787999999997 136.99672 342.35927999999996 138.36002 z" stroke-linecap="round"/>
</g>
</svg>